<svg xmlns="http://www.w3.org/2000/svg" xmlns:xlink="http://www.w3.org/1999/xlink" width="147.564" height="85.387" viewBox="0 0 147.564 85.387"><defs><clipPath id="a"><rect width="147.564" height="85.387" fill="none"></rect></clipPath></defs><g transform="translate(0 0)"><g transform="translate(0 0)" clip-path="url(#a)"><path d="M1.737,68.408H0V64.742H1.737v-.708c0-4.631,1.19-6.111,4.695-6.111a29.956,29.956,0,0,1,3.667.418l-.063,3.506c-.612-.032-1.706-.064-2.446-.064-1.221,0-1.543.643-1.543,2.284v.675H9.938v3.667H6.047V80.822H1.737Z" transform="translate(0 4.178)" fill="#161615"></path><path d="M11.91,80.028l.225-3.376a44.214,44.214,0,0,0,6.047.611c2.187,0,3.312-.869,3.312-2.831,0-1.575-1.253-2.6-3.087-2.6H14.129V68.161h4.278a2.938,2.938,0,0,0,2.7-2.895c0-1.512-1-2.284-3.184-2.284a33.656,33.656,0,0,0-5.564.579l-.289-3.281a19.52,19.52,0,0,1,6.175-1.158c5.6,0,7.429,1.9,7.429,5.854A5.241,5.241,0,0,1,23.2,69.736c1.769.966,2.861,1.738,2.861,4.6,0,4.471-2.058,6.788-7.236,6.788a27.815,27.815,0,0,1-6.915-1.095" transform="translate(0.859 4.264)" fill="#161615"></path><path d="M28.5,70.219c0-8.105,3.409-11.1,8.845-11.1a31.577,31.577,0,0,1,6.368.933l-.386,3.409a50.636,50.636,0,0,0-5.982-.482c-2.927,0-4.278,2.027-4.278,4.953a19.606,19.606,0,0,1,4.053-.8c4.792,0,7.3,2.091,7.3,6.883s-2.991,7.108-7.784,7.108c-5.661,0-8.137-4.149-8.137-10.9m11.354,3.8c0-1.994-1.126-3.023-3.12-3.023a13.03,13.03,0,0,0-3.7.708c0,3.088.9,5.564,3.6,5.564a2.939,2.939,0,0,0,3.216-3.249" transform="translate(2.055 4.264)" fill="#161615"></path><path d="M45.419,70.252c0-8.041,2.96-11.129,8.234-11.129s8.234,3.088,8.234,11.129-2.959,10.871-8.234,10.871-8.234-2.83-8.234-10.871m11.9,0c0-5.532-1.061-7.269-3.634-7.269s-3.7,1.737-3.7,7.269c0,5.209,1.125,7.012,3.7,7.012s3.634-1.8,3.634-7.012" transform="translate(3.276 4.264)" fill="#161615"></path><path d="M62.759,58.434h1.994L70.22,79.018h1.9l5.436-20.584H79.58L73.566,80.787H68.742Z" transform="translate(4.526 4.215)" fill="#161615"></path><path d="M81.929,58.284h1.9V60.7h-1.9Zm0,6.433h1.9V80.8h-1.9Z" transform="translate(5.909 4.204)" fill="#161615"></path><path d="M88.034,80.126l.129-1.673a48.705,48.705,0,0,0,5.243.516c2.766,0,4.405-.611,4.405-3.153,0-1.929-.964-2.347-4.6-2.926-3.667-.579-5.4-1.223-5.4-4.342,0-3.506,2.894-4.535,5.693-4.535a42.205,42.205,0,0,1,5.692.547l-.063,1.673a45.272,45.272,0,0,0-5.565-.515c-1.993,0-3.794.547-3.794,2.734,0,1.7.8,2.186,4.31,2.765,4.084.675,5.66,1.416,5.66,4.5,0,3.762-2.348,4.984-6.207,4.984a40.94,40.94,0,0,1-5.5-.579" transform="translate(6.333 4.617)" fill="#161615"></path><path d="M103.018,58.284h1.9V60.7h-1.9Zm0,6.433h1.9V80.8h-1.9Z" transform="translate(7.43 4.204)" fill="#161615"></path><path d="M109.108,72.121c0-5.725,1.768-8.137,6.754-8.137,4.952,0,6.721,2.412,6.721,8.137,0,6.11-1.351,8.587-6.721,8.587s-6.754-2.477-6.754-8.587m11.514,0c0-4.857-1.061-6.465-4.759-6.465s-4.792,1.608-4.792,6.465c0,4.952.61,6.914,4.792,6.914s4.759-1.962,4.759-6.914" transform="translate(7.869 4.615)" fill="#161615"></path><path d="M126,64.3h1.9v1.189a12.158,12.158,0,0,1,5.242-1.511c4.374,0,5.34,2.026,5.34,7.943v8.459h-1.9V72.023c0-4.727-.514-6.3-3.7-6.3a11.177,11.177,0,0,0-4.985,1.352V80.385H126Z" transform="translate(9.088 4.615)" fill="#161615"></path><path d="M71.032,45.639H70.72c-10.943-.118-22-6.536-36.961-21.459a1.85,1.85,0,0,1,.03-2.651c30.089-28.693,44.846-28.7,75.189-.044A1.851,1.851,0,0,1,109,24.157C93.554,39.194,82.174,45.639,71.032,45.639M37.73,22.9C51.248,36.118,61.191,41.831,70.76,41.935c9.842.092,20.159-5.621,34.26-19.086C77.537-2.723,64.986-2.714,37.73,22.9" transform="translate(2.396 0)" fill="#161615"></path><path d="M68.076,38.321h0a1.881,1.881,0,1,1,.193.008,1.716,1.716,0,0,1-.193-.008m4.3-1.889A1.854,1.854,0,1,1,74.7,37.618a1.879,1.879,0,0,1-.57.088,1.86,1.86,0,0,1-1.763-1.274m-10.644-.169a1.852,1.852,0,1,1,2.533-.674,1.869,1.869,0,0,1-1.607.926,1.828,1.828,0,0,1-.926-.252m16.14-2.119a1.86,1.86,0,1,1,1.37.607,1.844,1.844,0,0,1-1.37-.607m-21.1-2.334a1.841,1.841,0,1,1,1.5.763,1.846,1.846,0,0,1-1.5-.763m25.191-1.992a1.844,1.844,0,1,1,.755.163,1.806,1.806,0,0,1-.755-.163m-27.91-4.1a1.851,1.851,0,1,1,2.192,1.422,1.684,1.684,0,0,1-.385.045,1.851,1.851,0,0,1-1.808-1.467m28.035-3.363v-.051a1.852,1.852,0,0,1,3.7-.015v.066a1.852,1.852,0,1,1-3.7,0m-26.62-1.111a1.867,1.867,0,1,1,.385.036,2.288,2.288,0,0,1-.385-.036m25.53-3.955h0a1.852,1.852,0,1,1,2.452.925,1.83,1.83,0,0,1-.762.163,1.849,1.849,0,0,1-1.69-1.088M57.143,15.538a1.85,1.85,0,1,1,2.177-2.992,1.854,1.854,0,0,1-1.089,3.348,1.866,1.866,0,0,1-1.088-.356m20.821-2.384a1.85,1.85,0,1,1,1.236.474,1.852,1.852,0,0,1-1.236-.474M61,11.012a1.851,1.851,0,1,1,3.2-1.859,1.849,1.849,0,0,1-1.593,2.778A1.859,1.859,0,0,1,61,11.012M73.512,10.6a1.854,1.854,0,1,1,.57.089,1.878,1.878,0,0,1-.57-.089m-7.14-2.162a1.843,1.843,0,0,1,1.644-2.037V6.4a1.855,1.855,0,0,1,.393,3.688,1.576,1.576,0,0,1-.2.009,1.846,1.846,0,0,1-1.837-1.652" transform="translate(3.894 0.461)" fill="#122551"></path><path d="M68.984,31.066a1.481,1.481,0,1,1,1.645,1.3,1.635,1.635,0,0,1-.178.006,1.473,1.473,0,0,1-1.467-1.3m-3.318.695a1.483,1.483,0,1,1,.526.1,1.443,1.443,0,0,1-.526-.1m7.585-1.555a1.47,1.47,0,1,1,1.215.643,1.481,1.481,0,0,1-1.215-.643m-11.7-1.282a1.48,1.48,0,1,1,2.09.127,1.461,1.461,0,0,1-.978.37,1.479,1.479,0,0,1-1.112-.5M76.62,27.457a1.46,1.46,0,1,1,.689.178,1.464,1.464,0,0,1-.689-.178M59.215,24.5a1.477,1.477,0,1,1,1.437,1.126A1.485,1.485,0,0,1,59.215,24.5m17.643-2.518v-.03a1.481,1.481,0,1,1,2.962-.014v.044a1.481,1.481,0,1,1-2.962,0m-16.561-.7a1.467,1.467,0,1,1,.348.044,1.424,1.424,0,0,1-.348-.044m15.687-2.807v-.009a1.471,1.471,0,1,1,1.311.793,1.5,1.5,0,0,1-1.311-.785M61.651,17.155a1.486,1.486,0,0,1-.133-2.09h.008a1.483,1.483,0,1,1,1.1,2.459,1.454,1.454,0,0,1-.978-.37M73.6,15.8a1.482,1.482,0,1,1,2.06-.386,1.486,1.486,0,0,1-2.06.386m-8.821-1.676a1.479,1.479,0,1,1,1.912.86,1.525,1.525,0,0,1-.526.1,1.476,1.476,0,0,1-1.385-.955m5.467.415a1.44,1.44,0,1,1,.178.015,1.233,1.233,0,0,1-.178-.015" transform="translate(4.267 0.836)" fill="#99cdd2"></path><path d="M69.023,26.914a1.034,1.034,0,1,1,1.034-1.035,1.035,1.035,0,0,1-1.034,1.035m2.932-1.872a1.477,1.477,0,1,1,.741.2,1.478,1.478,0,0,1-.741-.2m-7.888-.548h0a1.48,1.48,0,1,1,2.022.541,1.432,1.432,0,0,1-.741.2,1.478,1.478,0,0,1-1.281-.741m7.348-4.236a1.48,1.48,0,1,1,2.021.54,1.413,1.413,0,0,1-.741.2,1.477,1.477,0,0,1-1.28-.74m-6.808.533a1.485,1.485,0,0,1-.54-2.022h.008a1.479,1.479,0,0,1,2.556,1.489h.006a1.489,1.489,0,0,1-1.289.74,1.444,1.444,0,0,1-.741-.207m3.38-3.392a1.034,1.034,0,1,1,1.035,1.035A1.035,1.035,0,0,1,67.988,17.4" transform="translate(4.607 1.18)" fill="#35a2d6"></path><path d="M68.795,23.154A1.752,1.752,0,1,0,67.042,21.4a1.753,1.753,0,0,0,1.753,1.753" transform="translate(4.835 1.417)" fill="#122551"></path></g></g></svg>